<svg width="219" height="117" viewBox="0 0 219 117" fill="none" xmlns="http://www.w3.org/2000/svg">
<path d="M8.35645 79.3916H33.4277V87.749H0V62.6787H8.35645V79.3916ZM43.5752 79.3916H33.4277V62.6787H43.5752V79.3916ZM22.6826 71.0352H14.3262V62.6787H22.6826V71.0352ZM33.4277 62.6787H22.6826V54.3213H33.4277V62.6787ZM8.35645 54.3213H0V45.9648H8.35645V54.3213ZM22.6826 54.3213H14.3262V45.9648H22.6826V54.3213ZM43.5752 54.3213H33.4277V37.6074H43.5752V54.3213ZM8.35645 37.6074H0V29.251H8.35645V37.6074ZM33.4277 37.6074H14.3262V29.251H33.4277V37.6074Z" fill="url(#paint0_linear_127_216)"/>
<path d="M60.7625 37.7812H72.4656C73.4968 37.7812 74.4291 38.026 75.2625 38.5156C76.0958 39.0052 76.7572 39.6615 77.2468 40.4844C77.7468 41.3073 77.9968 42.2292 77.9968 43.25V44.7031C77.9968 46.151 77.5802 47.25 76.7468 48C77.4864 48.4792 78.0229 49.0521 78.3562 49.7188C78.6895 50.375 78.8562 51.1979 78.8562 52.1875V54.6406C78.8562 55.6198 78.6062 56.5156 78.1062 57.3281C77.6166 58.1406 76.9552 58.7917 76.1218 59.2812C75.2885 59.7604 74.3666 60 73.3562 60H60.7625V37.7812ZM73.3875 56.7031C73.9916 56.7031 74.5072 56.5 74.9343 56.0938C75.3614 55.6771 75.575 55.1771 75.575 54.5938V52.1406C75.575 51.5573 75.3614 51.0573 74.9343 50.6406C74.5072 50.224 73.9864 50.0156 73.3718 50.0156H65.9343V46.7344H72.4656C73.0802 46.7344 73.6062 46.5365 74.0437 46.1406C74.4916 45.7344 74.7156 45.2448 74.7156 44.6719V43.25C74.7156 42.6458 74.4916 42.1302 74.0437 41.7031C73.6062 41.276 73.0802 41.0625 72.4656 41.0625H64.0593V56.7031H73.3875ZM89.1531 37.7812H93.2625L101.216 60H97.7L95.2781 53.3125H89.075L90.2625 50.0312H94.0906L91.2156 42.0938L84.7156 60H81.2L89.1531 37.7812ZM103.731 44.0312C103.731 42.875 104.018 41.8281 104.591 40.8906C105.163 39.9427 105.929 39.1875 106.887 38.625C107.846 38.0625 108.908 37.7812 110.075 37.7812H121.716V41.0625H110.075C109.231 41.0625 108.512 41.3542 107.919 41.9375C107.325 42.5104 107.028 43.2083 107.028 44.0312V53.8125C107.028 54.6042 107.325 55.2865 107.919 55.8594C108.512 56.4219 109.231 56.7031 110.075 56.7031H121.716V60H110.075C108.908 60 107.846 59.724 106.887 59.1719C105.929 58.6198 105.163 57.8802 104.591 56.9531C104.018 56.0156 103.731 54.9844 103.731 53.8594V44.0312ZM125.637 37.7812H128.934V46.7812H130.575L139.387 37.7812H143.934L133.184 48.7656L144.606 60H139.997L129.903 50.0781H128.934V60H125.637V37.7812ZM147.419 37.7812H150.716V60H147.419V37.7812ZM161.497 37.7812H165.606L173.559 60H170.044L167.622 53.3125H161.419L162.606 50.0312H166.434L163.559 42.0938L157.059 60H153.544L161.497 37.7812ZM176.387 37.7812H188.137C189.148 37.7812 190.065 38.0312 190.887 38.5312C191.721 39.0208 192.382 39.6771 192.872 40.5C193.372 41.3229 193.622 42.2396 193.622 43.25V45.4688C193.622 46.4792 193.377 47.3906 192.887 48.2031C192.408 49.0156 191.752 49.6615 190.919 50.1406C190.085 50.6198 189.153 50.8594 188.122 50.8594L194.747 60H190.731L184.106 50.8594H181.559V47.5781H188.137C188.752 47.5781 189.273 47.3698 189.7 46.9531C190.127 46.526 190.341 46.0156 190.341 45.4219V43.25C190.341 42.6458 190.127 42.1302 189.7 41.7031C189.273 41.276 188.752 41.0625 188.137 41.0625H179.684V60H176.387V37.7812ZM197.887 37.7812H209.7C210.856 37.7812 211.908 38.0625 212.856 38.625C213.815 39.1875 214.575 39.9427 215.137 40.8906C215.7 41.8281 215.981 42.875 215.981 44.0312V53.8125C215.981 54.9479 215.7 55.9844 215.137 56.9219C214.575 57.8594 213.815 58.6094 212.856 59.1719C211.908 59.724 210.856 60 209.7 60H197.887V37.7812ZM209.7 56.7031C210.533 56.7031 211.242 56.4167 211.825 55.8438C212.408 55.2708 212.7 54.5781 212.7 53.7656V44.0312C212.7 43.2083 212.408 42.5104 211.825 41.9375C211.242 41.3542 210.533 41.0625 209.7 41.0625H201.184V56.7031H209.7Z" fill="#EFEBE3"/>
<path d="M62.479 84V74.192H58.639V72.8H67.903V74.192H64.063V84H62.479ZM71.1016 77.632H76.8616V78.992H71.1016V77.632ZM71.2456 82.608H77.7736V84H69.6456V72.8H77.5496V74.192H71.2456V82.608ZM85.3567 84.128C84.5034 84.128 83.714 83.9893 82.9887 83.712C82.274 83.424 81.65 83.024 81.1167 82.512C80.594 81.9893 80.1834 81.3813 79.8847 80.688C79.586 79.9947 79.4367 79.232 79.4367 78.4C79.4367 77.568 79.586 76.8053 79.8847 76.112C80.1834 75.4187 80.5994 74.816 81.1327 74.304C81.666 73.7813 82.29 73.3813 83.0047 73.104C83.73 72.816 84.5194 72.672 85.3727 72.672C86.2367 72.672 87.0314 72.8213 87.7567 73.12C88.4927 73.408 89.1167 73.84 89.6287 74.416L88.5887 75.424C88.162 74.976 87.682 74.6453 87.1487 74.432C86.6154 74.208 86.0447 74.096 85.4367 74.096C84.8074 74.096 84.2207 74.2027 83.6767 74.416C83.1434 74.6293 82.6794 74.928 82.2847 75.312C81.89 75.696 81.5807 76.1547 81.3567 76.688C81.1434 77.2107 81.0367 77.7813 81.0367 78.4C81.0367 79.0187 81.1434 79.5947 81.3567 80.128C81.5807 80.6507 81.89 81.104 82.2847 81.488C82.6794 81.872 83.1434 82.1707 83.6767 82.384C84.2207 82.5973 84.8074 82.704 85.4367 82.704C86.0447 82.704 86.6154 82.5973 87.1487 82.384C87.682 82.16 88.162 81.8187 88.5887 81.36L89.6287 82.368C89.1167 82.944 88.4927 83.3813 87.7567 83.68C87.0314 83.9787 86.2314 84.128 85.3567 84.128ZM99.9432 72.8H101.543V84H99.9432V72.8ZM93.5112 84H91.9112V72.8H93.5112V84ZM100.087 79.008H93.3512V77.616H100.087V79.008ZM104.896 84V72.8H106.208L113.616 82H112.928V72.8H114.528V84H113.216L105.808 74.8H106.496V84H104.896ZM122.936 84.128C122.083 84.128 121.288 83.984 120.552 83.696C119.827 83.408 119.197 83.008 118.664 82.496C118.131 81.9733 117.715 81.3653 117.416 80.672C117.117 79.9787 116.968 79.2213 116.968 78.4C116.968 77.5787 117.117 76.8213 117.416 76.128C117.715 75.4347 118.131 74.832 118.664 74.32C119.197 73.7973 119.827 73.392 120.552 73.104C121.277 72.816 122.072 72.672 122.936 72.672C123.789 72.672 124.573 72.816 125.288 73.104C126.013 73.3813 126.643 73.7813 127.176 74.304C127.72 74.816 128.136 75.4187 128.424 76.112C128.723 76.8053 128.872 77.568 128.872 78.4C128.872 79.232 128.723 79.9947 128.424 80.688C128.136 81.3813 127.72 81.9893 127.176 82.512C126.643 83.024 126.013 83.424 125.288 83.712C124.573 83.9893 123.789 84.128 122.936 84.128ZM122.936 82.704C123.555 82.704 124.125 82.5973 124.648 82.384C125.181 82.1707 125.64 81.872 126.024 81.488C126.419 81.0933 126.723 80.6347 126.936 80.112C127.16 79.5893 127.272 79.0187 127.272 78.4C127.272 77.7813 127.16 77.2107 126.936 76.688C126.723 76.1653 126.419 75.712 126.024 75.328C125.64 74.9333 125.181 74.6293 124.648 74.416C124.125 74.2027 123.555 74.096 122.936 74.096C122.307 74.096 121.725 74.2027 121.192 74.416C120.669 74.6293 120.211 74.9333 119.816 75.328C119.421 75.712 119.112 76.1653 118.888 76.688C118.675 77.2107 118.568 77.7813 118.568 78.4C118.568 79.0187 118.675 79.5893 118.888 80.112C119.112 80.6347 119.421 81.0933 119.816 81.488C120.211 81.872 120.669 82.1707 121.192 82.384C121.725 82.5973 122.307 82.704 122.936 82.704ZM131.317 84V72.8H132.917V82.608H138.981V84H131.317ZM145.67 84.128C144.817 84.128 144.022 83.984 143.286 83.696C142.561 83.408 141.932 83.008 141.398 82.496C140.865 81.9733 140.449 81.3653 140.15 80.672C139.852 79.9787 139.702 79.2213 139.702 78.4C139.702 77.5787 139.852 76.8213 140.15 76.128C140.449 75.4347 140.865 74.832 141.398 74.32C141.932 73.7973 142.561 73.392 143.286 73.104C144.012 72.816 144.806 72.672 145.67 72.672C146.524 72.672 147.308 72.816 148.022 73.104C148.748 73.3813 149.377 73.7813 149.91 74.304C150.454 74.816 150.87 75.4187 151.158 76.112C151.457 76.8053 151.606 77.568 151.606 78.4C151.606 79.232 151.457 79.9947 151.158 80.688C150.87 81.3813 150.454 81.9893 149.91 82.512C149.377 83.024 148.748 83.424 148.022 83.712C147.308 83.9893 146.524 84.128 145.67 84.128ZM145.67 82.704C146.289 82.704 146.86 82.5973 147.382 82.384C147.916 82.1707 148.374 81.872 148.758 81.488C149.153 81.0933 149.457 80.6347 149.67 80.112C149.894 79.5893 150.006 79.0187 150.006 78.4C150.006 77.7813 149.894 77.2107 149.67 76.688C149.457 76.1653 149.153 75.712 148.758 75.328C148.374 74.9333 147.916 74.6293 147.382 74.416C146.86 74.2027 146.289 74.096 145.67 74.096C145.041 74.096 144.46 74.2027 143.926 74.416C143.404 74.6293 142.945 74.9333 142.55 75.328C142.156 75.712 141.846 76.1653 141.622 76.688C141.409 77.2107 141.302 77.7813 141.302 78.4C141.302 79.0187 141.409 79.5893 141.622 80.112C141.846 80.6347 142.156 81.0933 142.55 81.488C142.945 81.872 143.404 82.1707 143.926 82.384C144.46 82.5973 145.041 82.704 145.67 82.704ZM159.108 84.128C158.244 84.128 157.449 83.9893 156.724 83.712C155.998 83.424 155.369 83.024 154.836 82.512C154.302 81.9893 153.886 81.3813 153.588 80.688C153.289 79.9947 153.14 79.232 153.14 78.4C153.14 77.568 153.289 76.8053 153.588 76.112C153.886 75.4187 154.302 74.816 154.836 74.304C155.38 73.7813 156.014 73.3813 156.74 73.104C157.465 72.816 158.265 72.672 159.14 72.672C160.025 72.672 160.836 72.816 161.572 73.104C162.308 73.392 162.932 73.824 163.444 74.4L162.452 75.392C161.993 74.944 161.492 74.6187 160.948 74.416C160.414 74.2027 159.833 74.096 159.204 74.096C158.564 74.096 157.966 74.2027 157.412 74.416C156.868 74.6293 156.393 74.928 155.988 75.312C155.593 75.696 155.284 76.1547 155.06 76.688C154.846 77.2107 154.74 77.7813 154.74 78.4C154.74 79.008 154.846 79.5787 155.06 80.112C155.284 80.6347 155.593 81.0933 155.988 81.488C156.393 81.872 156.868 82.1707 157.412 82.384C157.956 82.5973 158.548 82.704 159.188 82.704C159.785 82.704 160.356 82.6133 160.9 82.432C161.454 82.24 161.966 81.9253 162.436 81.488L163.348 82.704C162.793 83.1733 162.142 83.5307 161.396 83.776C160.66 84.0107 159.897 84.128 159.108 84.128ZM161.812 82.496V78.336H163.348V82.704L161.812 82.496ZM166.411 84V72.8H168.011V84H166.411ZM172.82 77.632H178.58V78.992H172.82V77.632ZM172.964 82.608H179.492V84H171.364V72.8H179.268V74.192H172.964V82.608ZM185.347 84.128C184.494 84.128 183.678 84 182.899 83.744C182.12 83.4773 181.507 83.136 181.059 82.72L181.651 81.472C182.078 81.8453 182.622 82.1547 183.283 82.4C183.944 82.6453 184.632 82.768 185.347 82.768C185.998 82.768 186.526 82.6933 186.931 82.544C187.336 82.3947 187.635 82.192 187.827 81.936C188.019 81.6693 188.115 81.3707 188.115 81.04C188.115 80.656 187.987 80.3467 187.731 80.112C187.486 79.8773 187.16 79.6907 186.755 79.552C186.36 79.4027 185.923 79.2747 185.443 79.168C184.963 79.0613 184.478 78.9387 183.987 78.8C183.507 78.6507 183.064 78.464 182.659 78.24C182.264 78.016 181.944 77.7173 181.699 77.344C181.454 76.96 181.331 76.4693 181.331 75.872C181.331 75.296 181.48 74.768 181.779 74.288C182.088 73.7973 182.558 73.408 183.187 73.12C183.827 72.8213 184.638 72.672 185.619 72.672C186.27 72.672 186.915 72.7573 187.555 72.928C188.195 73.0987 188.75 73.344 189.219 73.664L188.691 74.944C188.211 74.624 187.704 74.3947 187.171 74.256C186.638 74.1067 186.12 74.032 185.619 74.032C184.99 74.032 184.472 74.112 184.067 74.272C183.662 74.432 183.363 74.6453 183.171 74.912C182.99 75.1787 182.899 75.4773 182.899 75.808C182.899 76.2027 183.022 76.5173 183.267 76.752C183.523 76.9867 183.848 77.1733 184.243 77.312C184.648 77.4507 185.091 77.5787 185.571 77.696C186.051 77.8027 186.531 77.9253 187.011 78.064C187.502 78.2027 187.944 78.384 188.339 78.608C188.744 78.832 189.07 79.1307 189.315 79.504C189.56 79.8773 189.683 80.3573 189.683 80.944C189.683 81.5093 189.528 82.0373 189.219 82.528C188.91 83.008 188.43 83.3973 187.779 83.696C187.139 83.984 186.328 84.128 185.347 84.128Z" fill="#EFEBE3"/>
<defs>
<linearGradient id="paint0_linear_127_216" x1="21.7875" y1="29.251" x2="21.7875" y2="87.7489" gradientUnits="userSpaceOnUse">
<stop stop-color="#4AB382"/>
<stop offset="1" stop-color="#2E7D64"/>
</linearGradient>
</defs>
</svg>
