<svg width="351" height="471" viewBox="0 0 351 471" fill="none" xmlns="http://www.w3.org/2000/svg">
<path d="M67.2002 403.2H268.8V470.4H0V268.8H67.2002V403.2ZM350.4 403.2H268.8V268.8H350.4V403.2ZM182.4 336H115.2V268.8H182.4V336ZM268.8 268.8H182.4V201.6H268.8V268.8ZM67.2002 201.6H0V134.4H67.2002V201.6ZM182.4 201.6H115.2V134.4H182.4V201.6ZM350.4 201.6H268.8V67.2002H350.4V201.6ZM67.2002 67.2002H0V0H67.2002V67.2002ZM268.8 67.2002H115.2V0H268.8V67.2002Z" fill="url(#paint0_linear_127_196)"/>
<defs>
<linearGradient id="paint0_linear_127_196" x1="175.2" y1="0" x2="175.2" y2="470.4" gradientUnits="userSpaceOnUse">
<stop stop-color="#55B575"/>
<stop offset="1" stop-color="#2E7D64"/>
</linearGradient>
</defs>
</svg>
