<svg width="154" height="42" viewBox="0 0 154 42" fill="none" xmlns="http://www.w3.org/2000/svg">
<rect y="28" width="14" height="14" transform="rotate(-90 0 28)" fill="url(#paint0_linear_117_444)"/>
<rect x="140" y="14" width="14" height="14" transform="rotate(-90 140 14)" fill="url(#paint1_linear_117_444)"/>
<rect x="112" y="28" width="14" height="14" transform="rotate(-90 112 28)" fill="url(#paint2_linear_117_444)"/>
<rect x="84" y="42" width="14" height="14" transform="rotate(-90 84 42)" fill="url(#paint3_linear_117_444)"/>
<rect x="56" y="28" width="14" height="14" transform="rotate(-90 56 28)" fill="url(#paint4_linear_117_444)"/>
<rect x="28" y="14" width="14" height="14" transform="rotate(-90 28 14)" fill="url(#paint5_linear_117_444)"/>
<defs>
<linearGradient id="paint0_linear_117_444" x1="0" y1="35" x2="14" y2="35" gradientUnits="userSpaceOnUse">
<stop stop-color="#55B575"/>
<stop offset="1" stop-color="#2E7D64"/>
</linearGradient>
<linearGradient id="paint1_linear_117_444" x1="140" y1="21" x2="154" y2="21" gradientUnits="userSpaceOnUse">
<stop stop-color="#55B575"/>
<stop offset="1" stop-color="#2E7D64"/>
</linearGradient>
<linearGradient id="paint2_linear_117_444" x1="112" y1="35" x2="126" y2="35" gradientUnits="userSpaceOnUse">
<stop stop-color="#55B575"/>
<stop offset="1" stop-color="#2E7D64"/>
</linearGradient>
<linearGradient id="paint3_linear_117_444" x1="84" y1="49" x2="98" y2="49" gradientUnits="userSpaceOnUse">
<stop stop-color="#55B575"/>
<stop offset="1" stop-color="#2E7D64"/>
</linearGradient>
<linearGradient id="paint4_linear_117_444" x1="56" y1="35" x2="70" y2="35" gradientUnits="userSpaceOnUse">
<stop stop-color="#55B575"/>
<stop offset="1" stop-color="#2E7D64"/>
</linearGradient>
<linearGradient id="paint5_linear_117_444" x1="28" y1="21" x2="42" y2="21" gradientUnits="userSpaceOnUse">
<stop stop-color="#55B575"/>
<stop offset="1" stop-color="#2E7D64"/>
</linearGradient>
</defs>
</svg>
